#!OML:ASF F:\VICON\USERDATA\INSTALL\rory3\rory3.ASF
:FULLY-SPECIFIED
:DEGREES
376
root -0.475624 15.9495 24.5808 -0.108428 4.10816 0.533579
lowerback 12.8066 0.836389 -5.35225
upperback -4.42355 0.366276 1.65637
thorax -12.1561 0.668818 4.77411
lowerneck -8.46683 -7.21257 -5.1878
upperneck 19.3244 -10.4889 6.58263
head 7.9858 -4.79218 1.99943
rclavicle -9.79014e-015 1.03368e-014
rhumerus -32.3622 -3.1335 -81.9706
rradius 35.7201
rwrist -6.12523
rhand -11.4701 19.9703
rfingers 7.12502
rthumb 14.5676 -9.49815
lclavicle -9.79014e-015 1.03368e-014
lhumerus -42.2022 8.45827 81.8622
lradius 21.336
lwrist -1.21925
lhand -3.45524 19.6122
lfingers 7.12502
lthumb 22.277 48.3482
rfemur -9.08709 14.3939 27.467
rtibia 26.7311
rfoot -14.8351 -10.7057
rtoes 3.02487
lfemur -26.4075 4.53721 -20.6928
ltibia 71.8735
lfoot 0.117608 -2.3906
ltoes 1.94087
377
root -0.476926 15.9313 24.692 -0.0971114 4.03026 0.47652
lowerback 12.8006 0.887451 -5.31239
upperback -4.40038 0.439315 1.62557
thorax -12.1339 0.697384 4.69982
lowerneck -8.84964 -7.35592 -5.3626
upperneck 19.7036 -10.6854 6.62742
head 8.20724 -4.8761 2.00248
rclavicle 6.7711e-015 -3.97569e-016
rhumerus -32.1031 -2.86179 -82.1061
rradius 36.3
rwrist -6.29128
rhand -11.3363 19.5503
rfingers 7.12502
rthumb 14.6965 -9.90883
lclavicle 6.7711e-015 -3.97569e-016
lhumerus -42.1715 8.30294 82.006
lradius 21.7676
lwrist -0.809028
lhand -3.49433 19.9143
lfingers 7.12502
lthumb 22.2395 48.6548
rfemur -8.63519 14.3998 27.701
rtibia 26.7791
rfoot -15.2247 -10.6119
rtoes 2.61494
lfemur -27.3181 4.515 -20.8449
ltibia 71.1312
lfoot -1.05013 -1.29383
ltoes 3.27416
378
root -0.471899 15.9252 24.8044 0.0472297 4.1007 0.577876
lowerback 12.7848 0.884486 -5.29193
upperback -4.44966 0.429098 1.53874
thorax -12.1778 0.689117 4.59438
lowerneck -8.60584 -7.24962 -5.38123
upperneck 19.5262 -10.5318 6.64433
head 8.09531 -4.81296 2.03894
rclavicle 9.39258e-015 1.55052e-014
rhumerus -31.8987 -2.59808 -82.2237
rradius 36.9071
rwrist -6.42656
rhand -11.2465 19.0389
rfingers 7.12502
rthumb 14.7831 -10.4138
lclavicle 9.39258e-015 1.55052e-014
lhumerus -42.1575 8.29211 82.0434
lradius 22.0775
lwrist -0.520447
lhand -3.64472 19.6638
lfingers 7.12502
lthumb 22.0951 48.4214
rfemur -8.29827 14.0945 27.6655
rtibia 26.7786
rfoot -15.5018 -10.4373
rtoes 1.39441
lfemur -28.3357 4.24114 -21.1969
ltibia 70.2084
lfoot -2.32766 -0.274306
ltoes 6.62866
379
root -0.469059 15.9216 24.9205 0.204589 4.11002 0.667551
lowerback 12.784 0.92682 -5.27696
upperback -4.55885 0.475595 1.43888
thorax -12.3066 0.711463 4.46507
lowerneck -8.48997 -7.3035 -5.46831
upperneck 19.5477 -10.6048 6.67241
head 8.09291 -4.85385 2.05804
rclavicle 7.87684e-015 -6.95746e-015
rhumerus -31.8125 -2.47177 -82.2627
rradius 37.3908
rwrist -6.62612
rhand -11.1347 18.8118
rfingers 7.12502
rthumb 14.8908 -10.633
lclavicle 7.87684e-015 -6.95746e-015
lhumerus -42.2568 8.09207 82.129
lradius 22.3985
lwrist -0.0931407
lhand -3.92688 19.3218
lfingers 7.12502
lthumb 21.8242 48.1112
rfemur -7.92679 14.0803 27.6774
rtibia 26.7172
rfoot -15.8771 -10.429
rtoes 0.87423
lfemur -29.2412 3.97152 -21.515
ltibia 69.0979
lfoot -3.60317 0.492468
ltoes 8.87804
380
root -0.471993 15.9133 25.0412 0.166046 4.04002 0.508282
lowerback 12.8121 1.0011 -5.12968
upperback -4.53412 0.600081 1.43198
thorax -12.3067 0.757699 4.34426
lowerneck -8.4523 -7.42426 -5.55835
upperneck 19.48 -10.7629 6.71116
head 8.08173 -4.93391 2.06917
rclavicle 1.45361e-015 6.55989e-015
rhumerus -31.5807 -2.4559 -82.2812
rradius 37.7335
rwrist -6.70997
rhand -11.1897 18.8233
rfingers 7.12502
rthumb 14.8377 -10.6254
lclavicle 1.45361e-015 6.55989e-015
lhumerus -42.1564 7.80257 82.3331
lradius 22.6505
lwrist 0.431097
lhand -4.10781 19.2612
lfingers 7.12502
lthumb 21.6504 48.0707
rfemur -7.27101 14.2043 28.0468
rtibia 26.5359
rfoot -16.2648 -10.5155
rtoes 0.652449
lfemur -29.9261 3.85034 -21.476
ltibia 67.8485
lfoot -4.59894 1.02514
ltoes 10.6473
381
root -0.471319 15.9115 25.1626 0.160715 4.01919 0.496073
lowerback 12.8701 1.05302 -5.08912
upperback -4.51596 0.668414 1.37938
thorax -12.327 0.784199 4.24679
lowerneck -8.51626 -7.43117 -5.4827
upperneck 19.5003 -10.7611 6.60795
head 8.08968 -4.93484 2.02093
rclavicle 9.06955e-015 4.77083e-015
rhumerus -31.3909 -2.21767 -82.3492
rradius 38.1269
rwrist -6.85757
rhand -11.1134 19.078
rfingers 7.12502
rthumb 14.9113 -10.3653
lclavicle 9.06955e-015 4.77083e-015
lhumerus -41.9999 7.68219 82.4611
lradius 22.8573
lwrist 0.869163
lhand -4.16237 19.2494
lfingers 7.12502
lthumb 21.598 48.0649
rfemur -6.57799 14.1572 28.2117
rtibia 26.2183
rfoot -16.4416 -10.5543
rtoes -0.186684
lfemur -30.5715 3.549 -21.5793
ltibia 66.3753
lfoot -5.47536 1.51183
ltoes 12.7816
